<svg xmlns="http://www.w3.org/2000/svg" width="388.63" height="235.047" viewBox="0 0 388.63 235.047">
  <g id="Group_16" data-name="Group 16" transform="translate(-4340.345 -2682)">
    <g id="_nrOuaYBkixfgsnqHctK-6" transform="translate(4448.108 2682)">
      <path id="_Le81KeJMyim5HhkGRo_8s" d="M22.583,0,0,36.212,22.583,72.426,45.169,36.212Z" transform="matrix(0.857, 0.515, -0.515, 0.857, 98.494, 53.102)" fill="#78c0ff"/>
      <path id="_KyVHkjgHPOo2OCs3A8YTO" d="M22.583,0,0,36.212,22.583,72.426,45.169,36.212Z" transform="matrix(0.857, 0.515, -0.515, 0.857, 59.689, 75.85)" fill="#96ceff"/>
      <path id="_pjM8kLSrLAKZOOmCmc9wb" d="M22.583,0,0,36.212,22.583,72.426,45.169,36.212Z" transform="matrix(0.857, 0.515, -0.515, 0.857, 137.299, 33.031)" fill="#4c96d7"/>
      <path id="_tP6nn8Njsk-Uf9etBc-kb" d="M22.583,0,0,36.212,22.583,72.426,45.169,36.212Z" transform="matrix(0.857, 0.515, -0.515, 0.857, 97.156, 12.29)" fill="#2f7bbd"/>
      <path id="_lUta7DnjQ8n3tR2aKOF-X" d="M161.3,48.609c0-.007,0-.013-.007-.02s-.018-.037-.025-.057a.316.316,0,0,0-.015-.035,1.648,1.648,0,0,0-.123-.29,1.332,1.332,0,0,0-.085-.113.091.091,0,0,0-.012-.015,1.229,1.229,0,0,0-.082-.108,1.339,1.339,0,0,0-.088-.1,111.492,111.492,0,0,1-.32-.251.257.257,0,0,1-.032-.013l-.023-.017L121.873,26.527a1.641,1.641,0,0,0-.408-.222L82.783,5.229a1.661,1.661,0,0,0-1.594,0L42.339,26.4a1.666,1.666,0,0,0-.868,1.462V69.231L3.483,89.928c-.055.033-.1.075-.15.11s-.092.062-.133.1a1.654,1.654,0,0,0-.366.44l-.017.02c-.01.02-.01.042-.02.062a1.69,1.69,0,0,0-.15.485c-.008.052-.017.1-.02.15a.93.93,0,0,0-.015.1V133.74A1.668,1.668,0,0,0,3.48,135.2l38.855,21.173a1.882,1.882,0,0,0,.243.095c.045.017.087.038.132.052a1.732,1.732,0,0,0,.421.055h0a1.7,1.7,0,0,0,.42-.055.025.025,0,0,0,.015,0c.032-.007.058-.027.088-.035l.047-.02a1.893,1.893,0,0,0,.228-.088L160.49,92.854a1.663,1.663,0,0,0,.868-1.461V49.047A1.48,1.48,0,0,0,161.3,48.609ZM83.651,50.035l35.531-19.366V69.231L83.651,88.589Zm0,42.346,35.531-19.358v38.549L83.651,130.938ZM44.8,113.554,80.32,94.2v38.556L44.8,152.107ZM158.03,90.4l-35.518,19.354V71.208L158.03,51.85Z" transform="translate(-2.612 -5.025)" fill="#5eb4ff"/>
    </g>
    <path id="Path_1059" data-name="Path 1059" d="M12.98-14.8H26.73V-22.55H12.98v-7.81H28.655V-37.9H4.345V0H29.15V-7.535H12.98Zm51.755-11.55a9.845,9.845,0,0,0-8.415,4.9,8.619,8.619,0,0,0-8.14-4.9c-2.585,0-6.435,1.76-6.93,5.665v-5.005H33.11V0h8.14V-13.42c0-4.29,2.255-5.39,4.455-5.39,2.035,0,4.015,1.43,4.015,5.39V0h8.14V-12.54c0-4.51,1.87-6.27,4.4-6.27,2.09,0,4.07,1.265,4.07,5.225V0h8.14V-13.805C74.47-21.67,71.17-26.345,64.735-26.345Zm30.69,0c-2.64,0-6.05,1.045-7.92,3.41v-2.75h-8.14V12.65h8.14V-2.86c1.87,2.42,5.28,3.52,7.92,3.52,6.435,0,12.485-5.225,12.485-13.53C107.91-21.12,101.86-26.345,95.425-26.345ZM93.72-6.875a6.07,6.07,0,0,1-5.94-6,6.022,6.022,0,0,1,5.94-5.94,6.023,6.023,0,0,1,5.94,5.94A6.034,6.034,0,0,1,93.72-6.875Zm22-22.66a4.851,4.851,0,0,0,4.95-4.73A4.781,4.781,0,0,0,115.72-39a4.878,4.878,0,0,0-5.06,4.73A4.95,4.95,0,0,0,115.72-29.535ZM119.79,0V-25.685h-8.14V0Zm20.955-26.345c-3.135,0-6.215,1.87-7.7,6.1v-5.445h-8.03V0h8.14V-8.525c0-7.59,2.64-10.285,5.83-10.285a6.784,6.784,0,0,1,3.685.99l1.925-7.755A8.314,8.314,0,0,0,140.745-26.345Zm9.9-3.19a4.851,4.851,0,0,0,4.95-4.73,4.781,4.781,0,0,0-4.95-4.73,4.878,4.878,0,0,0-5.06,4.73A4.95,4.95,0,0,0,150.645-29.535ZM154.715,0V-25.685h-8.14V0ZM172.59.66a13.207,13.207,0,0,0,11.22-6.05l-6.325-3.96a6.044,6.044,0,0,1-4.84,2.475,5.773,5.773,0,0,1-5.94-6.05,5.672,5.672,0,0,1,5.94-5.885,6.044,6.044,0,0,1,4.84,2.475l6.325-3.96a13.207,13.207,0,0,0-11.22-6.05c-7.48,0-14.19,5.28-14.19,13.42S165.11.66,172.59.66ZM205.7-22.605a10.108,10.108,0,0,0-8.03-3.74c-7.315,0-12.375,5.445-12.375,13.53C185.3-4.785,190.355.66,197.56.66a10.145,10.145,0,0,0,8.14-3.905V0h8.14V-25.685H205.7Zm-6.16,15.73a5.879,5.879,0,0,1-5.94-5.94,5.814,5.814,0,0,1,5.885-6,5.928,5.928,0,0,1,5.94,6A5.974,5.974,0,0,1,199.54-6.875ZM227.205,0V-39.655h-8.14V0Zm34.43.66a19.289,19.289,0,0,0,15.95-8.415l-6.71-4.675a10.1,10.1,0,0,1-8.91,4.95c-6.49,0-10.89-5.28-10.89-11.55s4.565-11.385,10.945-11.385a10.07,10.07,0,0,1,8.855,4.95l6.71-4.675a19.289,19.289,0,0,0-15.95-8.415,19.437,19.437,0,0,0-19.25,19.525A19.509,19.509,0,0,0,261.635.66Zm31.13,0c7.315,0,13.97-5.39,13.97-13.475,0-8.14-6.655-13.53-13.97-13.53s-13.915,5.39-13.915,13.53C278.85-4.73,285.45.66,292.765.66Zm0-7.535a5.657,5.657,0,0,1-5.665-5.94,5.7,5.7,0,0,1,5.665-6,5.7,5.7,0,0,1,5.665,6A5.657,5.657,0,0,1,292.765-6.875ZM329.4-22.88c-1.87-2.42-5.335-3.465-7.975-3.465-6.38,0-12.43,5.17-12.43,13.475S315.04.66,321.42.66c2.64,0,6.105-1.045,7.975-3.52V0h8.085V-39.655H329.4ZM323.18-6.875a6.071,6.071,0,0,1-5.94-6,6.023,6.023,0,0,1,5.94-5.94,6.012,6.012,0,0,1,5.885,5.94A6.024,6.024,0,0,1,323.18-6.875Zm45.43-6.49c0-7.81-6.16-12.98-13.53-12.98s-13.8,5.225-13.8,13.585c0,7.81,5.72,13.42,13.86,13.42,4.29,0,8.69-1.705,11.22-4.455l-4.18-5.28a9.741,9.741,0,0,1-6.49,2.64c-3.08,0-5.225-1.54-6-4.015H368.5C368.555-11.715,368.61-12.65,368.61-13.365Zm-18.975-1.87a5.444,5.444,0,0,1,5.61-4.235c2.915,0,5.17,1.7,5.28,4.235ZM381.92.66c5.17,0,11.055-2.7,11.055-8.36,0-1.76-.55-5.83-6.985-7.59l-4.455-1.21c-1.32-.33-2.2-.88-2.2-1.87,0-1.1,1.155-1.76,2.53-1.76,1.6,0,2.75.825,2.75,2.475h7.7c.11-6.435-5.775-8.69-10.615-8.69-6.215,0-10.5,3.905-10.5,7.7,0,2.145.22,6.435,7.755,8.47l3.355.88c1.925.44,2.53.825,2.53,1.65,0,1.21-1.43,2.09-3.135,2.09-2.31,0-3.245-1.485-3.245-2.75h-7.7C370.755-2.475,376.2.66,381.92.66Z" transform="translate(4336 2904.397)"/>
  </g>
</svg>
